<svg width="22" height="18" viewBox="0 0 22 18" fill="none" xmlns="http://www.w3.org/2000/svg">
<path fill-rule="evenodd" clip-rule="evenodd" d="M21.9818 9.0013C21.9818 8.4145 21.5061 7.9388 20.9193 7.9388H1.08594C0.499134 7.9388 0.0234375 8.4145 0.0234375 9.0013C0.0234375 9.5881 0.499134 10.0638 1.08594 10.0638H20.9193C21.5061 10.0638 21.9818 9.5881 21.9818 9.0013Z" fill="#333333"/>
<path fill-rule="evenodd" clip-rule="evenodd" d="M21.9818 1.91797C21.9818 1.33117 21.5061 0.855469 20.9193 0.855469H1.08594C0.499134 0.855469 0.0234375 1.33117 0.0234375 1.91797C0.0234375 2.50477 0.499134 2.98047 1.08594 2.98047H20.9193C21.5061 2.98047 21.9818 2.50477 21.9818 1.91797Z" fill="#333333"/>
<path fill-rule="evenodd" clip-rule="evenodd" d="M21.9818 16.0846C21.9818 15.4978 21.5061 15.0221 20.9193 15.0221H1.08594C0.499134 15.0221 0.0234375 15.4978 0.0234375 16.0846C0.0234375 16.6714 0.499134 17.1471 1.08594 17.1471H20.9193C21.5061 17.1471 21.9818 16.6714 21.9818 16.0846Z" fill="#333333"/>
</svg>
