<?xml version="1.0" encoding="utf-8"?>
<!-- Generator: Adobe Illustrator 26.5.0, SVG Export Plug-In . SVG Version: 6.00 Build 0)  -->
<svg version="1.1" id="Layer_1" xmlns="http://www.w3.org/2000/svg" xmlns:xlink="http://www.w3.org/1999/xlink" x="0px" y="0px"
	 viewBox="0 0 21.7 21.5" style="enable-background:new 0 0 21.7 21.5;" xml:space="preserve">
<style type="text/css">
	.st0{fill:#EFEFEF;}
	.st1{fill:#808285;}
</style>
<path class="st0" d="M18.4,2.5h-1.7c-0.5,0-0.8,0.4-0.8,0.8V5c0,0.5,0.4,0.8,0.8,0.8h1.7c0.5,0,0.8-0.4,0.8-0.8V3.3
	C19.2,2.8,18.8,2.5,18.4,2.5"/>
<path class="st0" d="M10.9,7.6c-0.6,0-1.2,0.2-1.6,0.5C9.4,8,9.5,8,9.7,8c0.9,0,1.6,0.7,1.6,1.6c0,0.9-0.7,1.6-1.6,1.6
	c-0.9,0-1.6-0.7-1.6-1.6c0-0.2,0-0.3,0.1-0.5c-0.3,0.5-0.5,1.1-0.5,1.6c0,1.8,1.4,3.2,3.2,3.2c1.8,0,3.2-1.4,3.2-3.2
	C14,9.1,12.6,7.6,10.9,7.6L10.9,7.6"/>
<path class="st1" d="M15.5,8.9l0.1,0.2L15.5,8.9"/>
<path class="st1" d="M15.6,9.3c0,0.1,0,0.2,0.1,0.2C15.7,9.5,15.7,9.4,15.6,9.3"/>
<path class="st1" d="M5.8,10.7c0-0.2,0-0.3,0-0.5C5.8,10.4,5.8,10.6,5.8,10.7"/>
<path class="st1" d="M15.3,8.5l0.1,0.1L15.3,8.5"/>
<path class="st0" d="M20,7.4h-3.4c-1.9-3.2-6-4.3-9.2-2.4c-1,0.6-1.8,1.4-2.4,2.4H1.6V4c0-1.3,1.1-2.4,2.3-2.4h13.6
	C18.9,1.6,20,2.7,20,4V7.4z M10.9,15.7c-2.8,0-5-2.2-5-5V10c0-0.3,0.1-0.7,0.1-1l0.1-0.2l0.1-0.2l0.1-0.2l0.1-0.2L6.5,8l0.2-0.2
	l0.1-0.1l0.2-0.2c1.8-2.1,5-2.2,7.1-0.4c0.1,0.1,0.3,0.3,0.4,0.4l0.3,0.3l0.4,0.7l0.1,0.1l0.1,0.3l0.1,0.2l0.1,0.3l0.1,0.2
	c0,0.2,0,0.3,0,0.5v0.7c0,2.8-2.2,5-5,5 M17.6,0H4.1C1.9,0,0,1.7,0,3.9c0,0,0,0,0,0l0,0v13.5c0,2.2,1.8,4,4,4h13.6
	c2.2,0,4-1.7,4.1-3.9c0,0,0,0,0,0l0,0V4C21.7,1.8,19.9,0,17.6,0L17.6,0"/>
</svg>
