<?xml version="1.0" encoding="utf-8"?>
<!-- Generator: Adobe Illustrator 26.5.0, SVG Export Plug-In . SVG Version: 6.00 Build 0)  -->
<svg version="1.1" id="Layer_1" xmlns="http://www.w3.org/2000/svg" xmlns:xlink="http://www.w3.org/1999/xlink" x="0px" y="0px"
	 viewBox="0 0 22.7 22.7" style="enable-background:new 0 0 22.7 22.7;" xml:space="preserve">
<style type="text/css">
	.st0{fill:#FFFFFF;}
</style>
<path class="st0" d="M22.5,4.1V3.9h-0.1c0-0.1,0-0.1-0.1-0.1c0-0.1,0-0.1-0.1-0.1l0,0c0-0.1,0-0.1-0.1-0.1l0,0H0.6
	c-0.1,0-0.1,0-0.1,0.1H0.4c0,0.1,0,0.1-0.1,0.1S0.3,4,0.2,4v0.2l0,0v14.3c0,0.5,0.4,0.9,0.9,0.9h20.5c0.5,0,0.9-0.4,0.9-0.9V4.1
	L22.5,4.1z M3.8,5.2h15.1l-7.6,6.3L3.8,5.2z M11.9,13.4l8.7-7.2v11.3H2.1V6.2l8.6,7.2C11,13.7,11.6,13.7,11.9,13.4z"/>
</svg>
