<?xml version="1.0" encoding="utf-8"?>
<!-- Generator: Adobe Illustrator 26.5.0, SVG Export Plug-In . SVG Version: 6.00 Build 0)  -->
<svg version="1.1" id="Layer_1" xmlns="http://www.w3.org/2000/svg" xmlns:xlink="http://www.w3.org/1999/xlink" x="0px" y="0px"
	 viewBox="0 0 30 30" style="enable-background:new 0 0 30 30;" xml:space="preserve">
<style type="text/css">
	.st0{fill-rule:evenodd;clip-rule:evenodd;fill:#FFFFFF;}
</style>
<g id="WhatsApp_Logo">
	<g id="WA_Logo">
		<path class="st0" d="M25.3,4.7C22.6,2,18.9,0.4,15.1,0.4c-8,0-14.5,6.5-14.5,14.5c0,2.5,0.7,5,1.9,7.2l-2,7.5l7.7-2
			c2.1,1.1,4.5,1.7,6.9,1.7l0,0c7.9-0.1,14.3-6.5,14.4-14.4C29.5,11.1,28,7.4,25.3,4.7z M15.1,26.9L15.1,26.9
			c-2.2,0-4.3-0.6-6.2-1.7l-0.4-0.3L4,26.1l1.2-4.4l-0.3-0.4c-1.2-1.9-1.8-4.1-1.8-6.4c0-6.6,5.3-12,12-12c3.2,0,6.3,1.3,8.5,3.5
			c2.2,2.3,3.5,5.3,3.5,8.5C27.1,21.5,21.7,26.9,15.1,26.9z M21.6,17.9l-2.4-1.2c-0.4-0.1-0.6-0.2-0.8,0.2l-1.2,1.4
			c-0.2,0.3-0.4,0.3-0.8,0.1c-1-0.5-2-1.1-2.9-1.8c-0.8-0.7-1.5-1.6-2-2.5c-0.2-0.3,0-0.5,0.2-0.7c0.2-0.2,0.4-0.4,0.5-0.7
			c0.2-0.2,0.3-0.4,0.4-0.6c0.1-0.2,0.1-0.4,0-0.6l-1.1-2.7c-0.3-0.7-0.6-0.6-0.9-0.6H9.9C9.5,8.2,9.2,8.4,9,8.7
			c-0.9,0.8-1.3,1.9-1.3,3c0.1,1.4,0.6,2.6,1.5,3.7c0.2,0.2,2.5,3.9,6.2,5.4l2,0.8c0.7,0.2,1.5,0.3,2.3,0.1c1-0.2,1.9-0.8,2.4-1.7
			c0.2-0.5,0.3-1.1,0.2-1.7L21.6,17.9z"/>
	</g>
</g>
</svg>
