<?xml version="1.0" encoding="utf-8"?>
<!-- Generator: Adobe Illustrator 26.5.0, SVG Export Plug-In . SVG Version: 6.00 Build 0)  -->
<svg version="1.1" id="Layer_3" xmlns="http://www.w3.org/2000/svg" xmlns:xlink="http://www.w3.org/1999/xlink" x="0px" y="0px"
	 viewBox="0 0 16.7 21.4" style="enable-background:new 0 0 16.7 21.4;" xml:space="preserve">
<style type="text/css">
	.st0{fill:#EFEFEF;}
</style>
<path class="st0" d="M8.9,0C2.9,0,0,4.2,0,7.7c0,2.1,0.8,4,2.5,4.7h0.2c0.2,0,0.4-0.1,0.4-0.4l0.3-1c0.1-0.2,0-0.5-0.2-0.7
	C2.7,9.7,2.4,8.9,2.4,8c0-3.2,2.6-5.8,5.8-5.8c0,0,0,0,0,0h0.2c3.3,0,5.1,2,5.1,4.8c0,3.5-1.6,6.5-3.9,6.5c-1.1,0-2-0.8-2-1.9
	c0,0,0,0,0,0l0,0c0-0.2,0-0.3,0-0.5c0.4-1.6,1.1-3.2,1.1-4.3C9,5.8,8.4,5,7.5,4.8H7.2C5.9,4.8,4.8,6.2,4.8,8c0,0.7,0.1,1.4,0.4,2
	l-1.6,6.6c-0.3,1.5-0.3,3.1,0,4.7c0,0.1,0.1,0.1,0.2,0.1c0,0,0.1,0,0.1-0.1c1-1.2,1.7-2.5,2.2-4C6.3,16.8,7,14,7,14
	c0.7,1,1.8,1.6,3,1.5c4,0,6.7-3.6,6.7-8.4c0-3.6-3.1-7-7.8-7"/>
</svg>
